<svg width="80" height="80" viewBox="0 0 80 80" fill="none" xmlns="http://www.w3.org/2000/svg">
<circle cx="40" cy="40" r="40" fill="white" fill-opacity="0.3"/>
<path d="M15.2322 38.2322C14.2559 39.2085 14.2559 40.7915 15.2322 41.7678L31.1421 57.6777C32.1184 58.654 33.7014 58.654 34.6777 57.6777C35.654 56.7014 35.654 55.1184 34.6777 54.1421L20.5355 40L34.6777 25.8579C35.654 24.8816 35.654 23.2986 34.6777 22.3223C33.7014 21.346 32.1184 21.346 31.1421 22.3223L15.2322 38.2322ZM62 42.5C63.3807 42.5 64.5 41.3807 64.5 40C64.5 38.6193 63.3807 37.5 62 37.5V42.5ZM17 42.5L62 42.5V37.5L17 37.5V42.5Z" fill="#F0E10C"/>
</svg>
