<svg width="8" height="8" viewBox="0 0 8 8" fill="none" xmlns="http://www.w3.org/2000/svg">
<path d="M4.00016 4.00001C4.1835 4.00001 4.3405 3.93467 4.47116 3.80401C4.60161 3.67356 4.66683 3.51667 4.66683 3.33334C4.66683 3.15001 4.60161 2.99301 4.47116 2.86234C4.3405 2.73189 4.1835 2.66667 4.00016 2.66667C3.81683 2.66667 3.65994 2.73189 3.5295 2.86234C3.39883 2.99301 3.3335 3.15001 3.3335 3.33334C3.3335 3.51667 3.39883 3.67356 3.5295 3.80401C3.65994 3.93467 3.81683 4.00001 4.00016 4.00001ZM4.00016 6.45001C4.67794 5.82778 5.18072 5.26245 5.5085 4.75401C5.83627 4.24578 6.00016 3.79445 6.00016 3.40001C6.00016 2.79445 5.80705 2.29856 5.42083 1.91234C5.03483 1.52634 4.56127 1.33334 4.00016 1.33334C3.43905 1.33334 2.96538 1.52634 2.57916 1.91234C2.19316 2.29856 2.00016 2.79445 2.00016 3.40001C2.00016 3.79445 2.16405 4.24578 2.49183 4.75401C2.81961 5.26245 3.32239 5.82778 4.00016 6.45001ZM4.00016 7.33334C3.10572 6.57223 2.43772 5.86523 1.99616 5.21234C1.55438 4.55967 1.3335 3.95556 1.3335 3.40001C1.3335 2.56667 1.60161 1.90278 2.13783 1.40834C2.67383 0.913894 3.29461 0.666672 4.00016 0.666672C4.70572 0.666672 5.3265 0.913894 5.8625 1.40834C6.39872 1.90278 6.66683 2.56667 6.66683 3.40001C6.66683 3.95556 6.44605 4.55967 6.0045 5.21234C5.56272 5.86523 4.89461 6.57223 4.00016 7.33334Z" fill="#F0E10C"/>
</svg>
