<svg width="80" height="80" viewBox="0 0 80 80" fill="none" xmlns="http://www.w3.org/2000/svg">
<path d="M80 40C80 62.0914 62.0914 80 40 80C17.9086 80 0 62.0914 0 40C0 17.9086 17.9086 0 40 0C62.0914 0 80 17.9086 80 40Z" fill="white" fill-opacity="0.3"/>
<path d="M63.7678 41.7678C64.7441 40.7915 64.7441 39.2085 63.7678 38.2322L47.8579 22.3223C46.8816 21.346 45.2986 21.346 44.3223 22.3223C43.346 23.2986 43.346 24.8816 44.3223 25.8579L58.4645 40L44.3223 54.1421C43.346 55.1184 43.346 56.7014 44.3223 57.6777C45.2986 58.654 46.8816 58.654 47.8579 57.6777L63.7678 41.7678ZM17 37.5C15.6193 37.5 14.5 38.6193 14.5 40C14.5 41.3807 15.6193 42.5 17 42.5V37.5ZM62 37.5L17 37.5V42.5L62 42.5V37.5Z" fill="#F0E10C"/>
</svg>
